# xmcd
# Track frame offsets:
# 150
# 10953
# 24360
# 39368
# 55418
# 69763
# 82820
# 95370
# 110933
# 123703
#
# Disc length: 1848 seconds
# Revision: 0
# Processed by: cddbd v1.4PL0 Copyright (c) Steve Scherf et al.
# Submitted via: VisiTrax 2.9.5.180 - For more info visit www.synapsa.com
#
DISCID=7907360a
DTITLE=Cleve Francis - Lovelight
DYEAR=1992
DGENRE=
TTITLE0=Travelin´ Man
TTITLE1=Endlessly
TTITLE2=Cry Baby
TTITLE3=Nothing Rhymes With Love
TTITLE4=After You
TTITLE5=Lovelight
TTITLE6=One More Time
TTITLE7=Moonlight Lover
TTITLE8=Pity The One
TTITLE9=Last Call For Love
EXTD=
EXTT0=
EXTT1=
EXTT2=
EXTT3=
EXTT4=
EXTT5=
EXTT6=
EXTT7=
EXTT8=
EXTT9=
PLAYORDER=
